<svg xmlns="http://www.w3.org/2000/svg" width="256" height="256" viewBox="0 0 256 256">
  <defs>
    <linearGradient id="bg" x1="24" y1="18" x2="230" y2="238" gradientUnits="userSpaceOnUse">
      <stop offset="0" stop-color="#f97316"/>
      <stop offset="1" stop-color="#be123c"/>
    </linearGradient>
    <filter id="shadow" x="-30%" y="-30%" width="160%" height="160%">
      <feDropShadow dx="0" dy="9" stdDeviation="8" flood-color="#7f1d1d" flood-opacity="0.28"/>
    </filter>
  </defs>
  <rect width="256" height="256" rx="56" fill="url(#bg)"/>
  <g filter="url(#shadow)">
    <path d="M52 58h152a30 30 0 0 1 30 30v54a30 30 0 0 1-30 30h-67l-58 42v-42H52a30 30 0 0 1-30-30V88a30 30 0 0 1 30-30Z" fill="#fff7ed"/>
    <path d="M72 99h76M72 129h52" stroke="#b45309" stroke-width="11" stroke-linecap="round" opacity="0.58"/>
    <circle cx="169" cy="128" r="24" fill="none" stroke="#0f766e" stroke-width="13"/>
    <path d="m187 146 28 28" stroke="#0f766e" stroke-width="13" stroke-linecap="round"/>
  </g>
</svg>
